<svg id="Layer_1" data-name="Layer 1" xmlns="http://www.w3.org/2000/svg" viewBox="0 0 280.16 301.04"><defs><style>.cls-1{fill:#003767;}</style></defs><title>GGUSD New Logo</title><path class="cls-1" d="M38.51,82.6a12.35,12.35,0,0,0,1.3-3.29,9.49,9.49,0,0,0,.2-3.55,8.07,8.07,0,0,0-1.26-3.38,8.54,8.54,0,0,0-3-2.78,9.12,9.12,0,0,0-4.1-1.35,7.79,7.79,0,0,0-3.53.62,8.84,8.84,0,0,0-2.88,2A14,14,0,0,0,23,73.68l-3.16,5.48,15.46,8.93ZM23.82,77.77l1.33-2.29a11.85,11.85,0,0,1,1.45-2A6.16,6.16,0,0,1,28.52,72,5.21,5.21,0,0,1,31,71.53a6.8,6.8,0,0,1,3,1,6.24,6.24,0,0,1,2.28,2,5.15,5.15,0,0,1,.82,2.34,6.52,6.52,0,0,1-.26,2.43,11.07,11.07,0,0,1-1,2.28L34.53,84ZM47.49,217a6,6,0,0,1,1,2,4.07,4.07,0,0,1,0,2.32l3,.8a4.89,4.89,0,0,0,.2-1.75,8.43,8.43,0,0,0-.28-1.8,9.16,9.16,0,0,0-.66-1.74,10,10,0,0,0-.94-1.54,11,11,0,0,0-2.8-2.69,9.36,9.36,0,0,0-3.33-1.35,8.85,8.85,0,0,0-3.58.11,9.76,9.76,0,0,0-3.55,1.71A10,10,0,0,0,33.82,216a8.66,8.66,0,0,0-1,6.93,10.31,10.31,0,0,0,1.73,3.5,9.24,9.24,0,0,0,3,2.73,8.14,8.14,0,0,0,3.58,1L41.12,227a4.92,4.92,0,0,1-2.27-.54,5.56,5.56,0,0,1-2-1.71,6.3,6.3,0,0,1-1.11-2.29,5.55,5.55,0,0,1-.05-2.33,6.12,6.12,0,0,1,1-2.23,7.83,7.83,0,0,1,1.89-1.93,7.23,7.23,0,0,1,2.33-1.18,6,6,0,0,1,4.69.52A6.23,6.23,0,0,1,47.49,217ZM21.94,177.21a4.49,4.49,0,0,0,.57-1.61,4.1,4.1,0,0,0-.09-1.77,4.32,4.32,0,0,0-.77-1.6,4.59,4.59,0,0,0-1.28-1.13,4.49,4.49,0,0,0-1.61-.57,4.1,4.1,0,0,0-1.77.09,4.25,4.25,0,0,0-1.6.77,4.59,4.59,0,0,0-1.13,1.28,4.7,4.7,0,0,0-.58,1.61,4.55,4.55,0,0,0,.87,3.37,4.59,4.59,0,0,0,1.28,1.13,4.7,4.7,0,0,0,1.61.58,4.44,4.44,0,0,0,1.77-.09,4.5,4.5,0,0,0,1.6-.78A4.59,4.59,0,0,0,21.94,177.21ZM18.36,157a8.79,8.79,0,0,0,2.86-2.16A9,9,0,0,0,23,151.63a11,11,0,0,0,.49-4,17.58,17.58,0,0,0-.56-3.72A13.49,13.49,0,0,0,21.75,141l-9.24.48.35,6.82,2.62-.13-.19-3.76,4.53-.23a9.16,9.16,0,0,1,.82,3.51,6.81,6.81,0,0,1-.36,2.69A5.56,5.56,0,0,1,19,152.43a6.12,6.12,0,0,1-2,1.37,7.68,7.68,0,0,1-2.61.58,7.59,7.59,0,0,1-2.59-.31,6.25,6.25,0,0,1-2.13-1.14,5.78,5.78,0,0,1-1.49-1.88,6.37,6.37,0,0,1-.63-2.53,6.61,6.61,0,0,1,.39-2.68,5.35,5.35,0,0,1,1.18-2L6.64,141.8a8.28,8.28,0,0,0-1.48,2.94,12.31,12.31,0,0,0-.41,3.95,10.89,10.89,0,0,0,.86,3.8,9.1,9.1,0,0,0,2,3,8.61,8.61,0,0,0,3,1.88,9.72,9.72,0,0,0,3.91.55A10,10,0,0,0,18.36,157Zm5.05-27L19.6,127.8l1.13-7.66L25,119.08l.53-3.59-18.79,5-.4,2.72L22.9,133.5Zm-6.34-3.66-6.79-3.82,7.59-1.67ZM34.39,196.7a3.31,3.31,0,0,1,.84.71,4,4,0,0,1,.62.92,4.11,4.11,0,0,1,.45,1.85A3.79,3.79,0,0,1,36,202l3,.82a6.68,6.68,0,0,0,.18-2.82,8.31,8.31,0,0,0-.83-2.68,8.93,8.93,0,0,0-1.36-2,6.38,6.38,0,0,0-1.8-1.43,4.79,4.79,0,0,0-2.13-.59,4.56,4.56,0,0,0-2.35.55A4.88,4.88,0,0,0,29,195.14a4.43,4.43,0,0,0-.79,1.58,5.48,5.48,0,0,0-.18,1.71c0,.59.1,1.16.19,1.72s.17,1.13.25,1.65a6,6,0,0,1,.07,1.44,2.8,2.8,0,0,1-.32,1.15,2.06,2.06,0,0,1-.89.83,2.35,2.35,0,0,1-1.23.29,2.49,2.49,0,0,1-1.07-.3,3.07,3.07,0,0,1-.89-.72,4.8,4.8,0,0,1-.64-1,5,5,0,0,1-.51-2.16,4.63,4.63,0,0,1,.49-2.21l-2.92-1.07a6.58,6.58,0,0,0-.46,3.29,9.23,9.23,0,0,0,1,3.33,8.82,8.82,0,0,0,1.45,2.07,6.21,6.21,0,0,0,1.88,1.36,5.2,5.2,0,0,0,2.23.45,5.64,5.64,0,0,0,2.47-.66,4.55,4.55,0,0,0,1.74-1.44,4.81,4.81,0,0,0,.73-1.79,6.85,6.85,0,0,0,.06-1.92c-.07-.66-.15-1.28-.24-1.87s-.17-1-.23-1.45a4.76,4.76,0,0,1,0-1.19,2.3,2.3,0,0,1,.34-.95,2.05,2.05,0,0,1,.8-.7,2.1,2.1,0,0,1,1.14-.25A2.4,2.4,0,0,1,34.39,196.7Zm-5.75-91.49-7.16-2.46.76-2.2,8.5-1.44L32,95.48l-9,1.93a5.53,5.53,0,0,0-.59-3.36A4.53,4.53,0,0,0,19.72,92a4.82,4.82,0,0,0-2.44-.26,4.65,4.65,0,0,0-2,.88,6.24,6.24,0,0,0-1.5,1.71,10.76,10.76,0,0,0-1,2.22l-2,5.87,16.88,5.82Zm-8.42-7.09a8.68,8.68,0,0,1-.35,1.33L19,101.9l-4.75-1.63.94-2.72a8.18,8.18,0,0,1,.5-1.15,3.39,3.39,0,0,1,.73-1,2.51,2.51,0,0,1,1-.55,2,2,0,0,1,1.23.09,2.3,2.3,0,0,1,1.14.76,2.42,2.42,0,0,1,.46,1.1A4,4,0,0,1,20.22,98.12Zm246.46,35.16,2.8-.35-1.14-9,5-.63,1,8.13,2.66-.34-1-8.13,4.51-.57,1.09,8.58,2.75-.35-1.49-11.73-17.72,2.25ZM250.14,80.67l15.29-9.24-1.65-2.72L248.5,78Zm6,11.58,6.9-3,3.11,7.22,2.46-1-3.11-7.23L270,86.28l3.3,7.67,2.55-1.09-4.56-10.59-16.4,7.06ZM235.08,60.1l10.54-8.9,0,0-5.07,15.38,2.6,3.09,13.65-11.53-2-2.42-10.22,8.62,0,0,4.86-15-2.72-3.22L233,57.67Zm27.84,51.38,17.21-4.73-.84-3.07-17.22,4.73ZM218.3,44.84a8.58,8.58,0,0,0,4.47,3.54,6.91,6.91,0,0,0,2.65.31A6.56,6.56,0,0,0,228,47.9,7.51,7.51,0,0,0,230.22,46l7-8.86-2.49-2-6.93,8.75a6.48,6.48,0,0,1-1.12,1.1,4,4,0,0,1-1.38.66,3.51,3.51,0,0,1-1.58,0,4.24,4.24,0,0,1-1.73-.88,4.36,4.36,0,0,1-1.26-1.48,3.64,3.64,0,0,1-.36-1.54,3.89,3.89,0,0,1,.33-1.49,6.06,6.06,0,0,1,.81-1.34l6.93-8.76-2.49-2L219,37a7.46,7.46,0,0,0-1.38,2.62,6.25,6.25,0,0,0-.19,2.67A6.8,6.8,0,0,0,218.3,44.84ZM66,233.33l-4.91,5.28L55,232.93l4.91-5.28-2.33-2.17L45.4,238.56l2.33,2.16,5.39-5.8,6.11,5.69-5.39,5.8,2.33,2.16L68.33,235.5ZM92.69,26.1a8.77,8.77,0,0,0,6.49,2.81,10.68,10.68,0,0,0,3.95-.74,17.45,17.45,0,0,0,3.38-1.66,14,14,0,0,0,2.43-2l-3.26-8.67-6.39,2.41.92,2.46,3.52-1.33,1.6,4.25a9.19,9.19,0,0,1-3.11,1.84,6.83,6.83,0,0,1-2.66.48,5.62,5.62,0,0,1-2.35-.58,6,6,0,0,1-1.91-1.51A7.48,7.48,0,0,1,94,21.54,7.35,7.35,0,0,1,93.46,19a6.29,6.29,0,0,1,.44-2.38,5.7,5.7,0,0,1,1.34-2,6.39,6.39,0,0,1,2.22-1.38,6.83,6.83,0,0,1,2.68-.44,5.39,5.39,0,0,1,2.23.53l1.22-3a8.11,8.11,0,0,0-3.25-.51,11.91,11.91,0,0,0-3.89.8,11,11,0,0,0-3.36,2,9.18,9.18,0,0,0-2.21,2.82A8.76,8.76,0,0,0,90,18.89a10.48,10.48,0,0,0,2.69,7.21ZM56.8,57.71l-2.14-1.85-5.95,6.89-3.82-3.29,5.36-6.21-2-1.74-5.35,6.2-3.44-3,5.65-6.55L43,46.38l-7.72,9L48.77,67Zm8.8-8.19L57,38.7l0,0,15.21,5.56,3.16-2.5-11.07-14-2.5,2,8.3,10.49,0,0-14.8-5.34L52,37.48l11.08,14Zm106.87-26L183.3,7.58,180,6.84,172.14,19.2l-.1,0L170.19,4.7l-3.47-.76,3.06,19ZM141.9,18a9,9,0,0,0,3,2,10.24,10.24,0,0,0,3.8.81,10.43,10.43,0,0,0,3.88-.58,9.07,9.07,0,0,0,3.11-1.84,9,9,0,0,0,2.1-2.92,9.84,9.84,0,0,0,.83-3.79,9.81,9.81,0,0,0-.6-3.9,8.38,8.38,0,0,0-1.91-3,8.78,8.78,0,0,0-3-2,11,11,0,0,0-3.84-.78,10.89,10.89,0,0,0-3.84.54,8.78,8.78,0,0,0-3.08,1.77,8.49,8.49,0,0,0-2.09,2.88,10,10,0,0,0-.83,3.85A9.73,9.73,0,0,0,140,15,8.75,8.75,0,0,0,141.9,18Zm1.47-9.33a6.5,6.5,0,0,1,1.31-2,5.89,5.89,0,0,1,2-1.32,6.52,6.52,0,0,1,5,.15,5.83,5.83,0,0,1,1.9,1.45,6.25,6.25,0,0,1,1.19,2.11,7.23,7.23,0,0,1,.36,2.58,7.78,7.78,0,0,1-.52,2.62,6.06,6.06,0,0,1-1.33,2,5.7,5.7,0,0,1-2,1.31,6.51,6.51,0,0,1-5-.15,5.74,5.74,0,0,1-1.9-1.43,6.15,6.15,0,0,1-1.2-2.12,7.56,7.56,0,0,1-.36-2.65A7.34,7.34,0,0,1,143.37,8.69ZM197.62,29l-8.44-3.4,1.88-4.68L198.67,24l1-2.48-7.6-3.06,1.7-4.21,8,3.23,1-2.57-11-4.42L185.17,27l11.39,4.59Zm-75.9-6.48-1.26-7.46,2.29-.39,5.34,6.78,3.78-.64-6-7a5.53,5.53,0,0,0,2.67-2.12,4.58,4.58,0,0,0,.56-3.31,5,5,0,0,0-1-2.27,4.54,4.54,0,0,0-1.72-1.32,6.57,6.57,0,0,0-2.22-.51,11.25,11.25,0,0,0-2.45.15l-6.12,1,3,17.61ZM122,7.07A8.3,8.3,0,0,1,123.28,7a3.76,3.76,0,0,1,1.19.18,2.56,2.56,0,0,1,1,.6,2.09,2.09,0,0,1,.52,1.13,2.24,2.24,0,0,1-.13,1.36,2.28,2.28,0,0,1-.75.93,3.83,3.83,0,0,1-1.14.58,10.33,10.33,0,0,1-1.33.33L120,12.5l-.84-4.95Zm89.25,239.22-1.36-2.42-12.31,6.92,1.36,2.42,4.77-2.68,7.39,13.15,2.77-1.56L206.51,249Zm18.09-6.77a4.59,4.59,0,0,0-1.11-3.16,4.9,4.9,0,0,0-1.93-1.54,4.52,4.52,0,0,0-2.14-.32,6.42,6.42,0,0,0-2.19.63,10.42,10.42,0,0,0-2.08,1.32l-4.86,3.86,11.12,14,2.48-2L224,246.38l1.82-1.44,7.95,3.35,3-2.39-8.66-3.23A5.56,5.56,0,0,0,229.37,239.52Zm-3.28,1.23a3.69,3.69,0,0,1-.72,1.06,9.65,9.65,0,0,1-1,.92l-2,1.62-3.13-3.93,2.25-1.79a9.93,9.93,0,0,1,1-.7,3.49,3.49,0,0,1,1.14-.41,2.32,2.32,0,0,1,1.11.06,2,2,0,0,1,1,.74,2.23,2.23,0,0,1,.55,1.25A2.37,2.37,0,0,1,226.09,240.75Zm-30,22.06a4.63,4.63,0,0,0-1.7-.92,7.1,7.1,0,0,0-1.9-.28c-.66,0-1.29,0-1.89,0s-1,.06-1.46.06a4.36,4.36,0,0,1-1.19-.12,2.21,2.21,0,0,1-.91-.44,2.08,2.08,0,0,1-.6-.87,2.16,2.16,0,0,1-.12-1.16,2.3,2.3,0,0,1,.43-1,3.14,3.14,0,0,1,.79-.75,5,5,0,0,1,1-.53,4.36,4.36,0,0,1,1.89-.24,3.88,3.88,0,0,1,1.72.53l1.14-2.85a6.68,6.68,0,0,0-2.79-.49,8.5,8.5,0,0,0-2.75.52,9.42,9.42,0,0,0-2.12,1.14,6.59,6.59,0,0,0-1.62,1.63,5,5,0,0,0-.82,2.05,4.61,4.61,0,0,0,.29,2.39,4.9,4.9,0,0,0,1.13,1.83,4.36,4.36,0,0,0,1.48,1,5.37,5.37,0,0,0,1.68.36,16.64,16.64,0,0,0,1.73,0l1.67-.07a6.55,6.55,0,0,1,1.44.09,3.24,3.24,0,0,1,1.11.45,2,2,0,0,1,.72,1,2.46,2.46,0,0,1,.16,1.25,2.74,2.74,0,0,1-.42,1,3.28,3.28,0,0,1-.81.81,5.23,5.23,0,0,1-1,.53,5,5,0,0,1-2.2.26,4.45,4.45,0,0,1-2.15-.73l-1.38,2.79a6.67,6.67,0,0,0,3.22.82,9.41,9.41,0,0,0,3.42-.6,8.91,8.91,0,0,0,2.21-1.21,6.18,6.18,0,0,0,1.56-1.72,5.28,5.28,0,0,0,.69-2.16,5.59,5.59,0,0,0-.39-2.54A4.5,4.5,0,0,0,196.14,262.81ZM257.24,141a112.54,112.54,0,1,0-154,104.66,184.25,184.25,0,0,1,3.65-24c1.89-7.31,1.89-9.67,1.65-22.17s3.21-71.59,3.28-73.31c.27-7.57-15.18-.15-17.82-3.12-3.56-4-6-28.5-5.57-37,0-.09,0-.17,0-.25L86,88.8a3.71,3.71,0,0,1-5.71-4.64l8.41-10.33a5.92,5.92,0,0,1,2.16-7.21,6.49,6.49,0,0,1,4.75-1.29l6-7.36c3-3.42,8.85,2.3,6.17,5.64L97.81,75.09c.18,6.6-1,22.43,11.33,16.43,4.69-2.28,13.91.78,20-1.34,3.35-1.15,4.15-2.62,5.36-4.25.08-.16.39-1.06.5-1.42,0,0,.1,0,.23,0a19.48,19.48,0,0,1-6.22-14.61,21.58,21.58,0,0,1,.24-3.14l-19.84-9.54,35.15-18.87,35.15,18.87-10.68,5.57.63,16.55-2.79-.08.8-15.88L160,66.7a22,22,0,0,1,.24,3.17,19.49,19.49,0,0,1-6.17,14.57c.09,0,.14,0,.14.06a3.26,3.26,0,0,0,.58,1.43c1.25,1.66,4,5,7.06,6.58,4.24,2.12,16.21,5.3,20.75,21,2.59,9,3.54,14.15,5.42,30.18s5,19.58,4.72,21.93c-.05.48-.63,1-1.52,1.68a12.05,12.05,0,0,1,.64,4.41A5.38,5.38,0,0,1,186.5,177c-5.76.13-5.52-1.83-5.38-4.32-1.42.77-2.43,1.43-2.55,1.86-.47,1.65,2.36,12.49,2.13,25s-.24,14.86,1.64,22.17a184.26,184.26,0,0,1,3.66,24A112.57,112.57,0,0,0,257.24,141ZM178.63,276.41,174.48,259l-3.09.74,4.15,17.37Zm79.46-85.05-2.48-1.25-6.36,12.62,2.48,1.25,2.46-4.89,13.48,6.79,1.42-2.84-13.46-6.79Zm9-49.21-.38,6.32A12.53,12.53,0,0,0,267,152a9.66,9.66,0,0,0,1.41,3.27,8.29,8.29,0,0,0,2.63,2.46,8.64,8.64,0,0,0,4,1.12,9.16,9.16,0,0,0,4.28-.62,8,8,0,0,0,2.88-2.13,9,9,0,0,0,1.69-3.08,14.08,14.08,0,0,0,.66-3.47l.39-6.32Zm14.76,6.73a12.93,12.93,0,0,1-.41,2.45,5.94,5.94,0,0,1-1.06,2.17,5.09,5.09,0,0,1-2,1.51,6.72,6.72,0,0,1-3.16.44,6.31,6.31,0,0,1-3-.81,5.24,5.24,0,0,1-1.77-1.73,6.33,6.33,0,0,1-.85-2.29,11,11,0,0,1-.14-2.49l.16-2.64,12.34.75Zm-6.31,23.72a4.61,4.61,0,0,0-1.13-1.28,4.34,4.34,0,0,0-1.6-.78,4.49,4.49,0,0,0-1.78-.09,4.65,4.65,0,0,0-1.6.58,4.59,4.59,0,0,0-1.28,1.13,4.55,4.55,0,0,0-.87,3.37,4.7,4.7,0,0,0,.58,1.61,4.77,4.77,0,0,0,1.14,1.28,4.21,4.21,0,0,0,1.59.77,4.15,4.15,0,0,0,1.78.09,4.57,4.57,0,0,0,2.88-1.71A4.35,4.35,0,0,0,276,176a4.25,4.25,0,0,0,.08-1.77A4.44,4.44,0,0,0,275.52,172.6ZM85.25,247.21a10.92,10.92,0,0,0-3-2.58,10.56,10.56,0,0,0-3.6-1.43,8.66,8.66,0,0,0-3.55,0,8.44,8.44,0,0,0-3.24,1.46,9.87,9.87,0,0,0-2.63,2.93,10,10,0,0,0-1.39,3.63A8.85,8.85,0,0,0,69.6,258a10.25,10.25,0,0,0,2.9,2.59,10.47,10.47,0,0,0,3.65,1.43,9.17,9.17,0,0,0,3.62-.06A8.76,8.76,0,0,0,83,260.51a10.63,10.63,0,0,0,4-6.56,8.28,8.28,0,0,0-.17-3.55A8.88,8.88,0,0,0,85.25,247.21Zm-1.59,6.19a7.38,7.38,0,0,1-1,2.42,7.56,7.56,0,0,1-1.76,2A6.26,6.26,0,0,1,78.78,259a5.61,5.61,0,0,1-2.38.15,6.15,6.15,0,0,1-2.39-.88,6.29,6.29,0,0,1-1.86-1.72,5.76,5.76,0,0,1-.94-2.19,6.21,6.21,0,0,1,0-2.43,7.65,7.65,0,0,1,1-2.48,7.46,7.46,0,0,1,1.72-2,6.3,6.3,0,0,1,2.15-1.11,5.73,5.73,0,0,1,2.37-.17,5.9,5.9,0,0,1,2.4.88,6.11,6.11,0,0,1,1.89,1.74,5.76,5.76,0,0,1,.93,2.2A6.17,6.17,0,0,1,83.66,253.4Zm172.86-37.11a5,5,0,0,1,.15,2.33,5.44,5.44,0,0,1-1.05,2.39,6.3,6.3,0,0,1-1.86,1.73,5.36,5.36,0,0,1-2.22.74,6.15,6.15,0,0,1-2.39-.24,8,8,0,0,1-2.42-1.24,7.28,7.28,0,0,1-1.81-1.87,6.3,6.3,0,0,1-.92-2.24,5.89,5.89,0,0,1,1.12-4.73,5.74,5.74,0,0,1,1.67-1.53A4,4,0,0,1,249,211l-.11-3.09a5.26,5.26,0,0,0-1.74.33,8.28,8.28,0,0,0-1.64.8,8.9,8.9,0,0,0-1.46,1.15,9.78,9.78,0,0,0-1.19,1.34,10.73,10.73,0,0,0-1.74,3.48,9.13,9.13,0,0,0-.3,3.58,8.57,8.57,0,0,0,1.16,3.38,9.73,9.73,0,0,0,2.68,2.89,10.1,10.1,0,0,0,3.5,1.69,8.82,8.82,0,0,0,3.57.17,8.73,8.73,0,0,0,3.34-1.28,10.6,10.6,0,0,0,2.84-2.69,9.41,9.41,0,0,0,1.71-3.72,8.31,8.31,0,0,0-.15-3.71Zm-91.46,54a9,9,0,0,0-1.25-4.12,7.87,7.87,0,0,0-2.53-2.54,9.16,9.16,0,0,0-3.3-1.21,14.51,14.51,0,0,0-3.53-.14l-6.31.57,1.59,17.78,6.31-.56a12.76,12.76,0,0,0,3.45-.83,9.79,9.79,0,0,0,3-1.88,8.29,8.29,0,0,0,2-3A8.55,8.55,0,0,0,165.06,270.34Zm-3.75,3.35a5.22,5.22,0,0,1-1.45,2,6.52,6.52,0,0,1-2.13,1.18,10.51,10.51,0,0,1-2.44.51l-2.64.24-1.1-12.31,2.64-.24a12.1,12.1,0,0,1,2.48,0,6,6,0,0,1,2.31.73,5,5,0,0,1,1.79,1.74,6.75,6.75,0,0,1,.9,3.06A6.27,6.27,0,0,1,161.31,273.69Zm68.94-46.5,12.83,12.42,2.21-2.28L232.47,224.9ZM144.67,202c.15-.22,1.63-2.35,2.7-3.62s2.84-4.13,1.57-5.83a2.33,2.33,0,0,0-3.74-.19,3.29,3.29,0,0,0-.54,1.55h0a3.4,3.4,0,0,0-.54-1.55,2.33,2.33,0,0,0-3.74.19c-1.27,1.7.43,4.49,1.56,5.83s2.55,3.4,2.7,3.62A0,0,0,0,0,144.67,202ZM118.8,154.92c2.71,3.53,10.93,4.92,11.88,5.86s-.6,13.14-1.6,27c-.81,11.4-2,54.72-2.3,64.37,2.67.43,5.38.77,8.12,1-.08-4.46,1.07-20,1.07-29.71,0-10.56-1.71-31.17-1.36-34.58.17-1.69,6.19-5,6.87-7,.22-.67.56-1.45.29-1.58-4.19-1.55-7.25-6.39-7.25-12.13,0-7,4.54-11.79,10.14-11.79s10.13,4.8,10.13,11.79c0,5.74-3,10.58-7.24,12.13-.23.1.07.91.29,1.58.68,2,6.7,5.34,6.87,7,.34,3.41-1.36,24-1.36,34.58,0,9.71,1.14,25.27,1.07,29.72q4.08-.34,8.06-1c-.26-9.62-1.48-53-2.3-64.4-1-13.86-2.54-26.05-1.59-27s9.16-2.33,11.87-5.86c5.9-7.67-11.23-26.33-12.17-28s-4.89-6.3-6.1-6.36h0c-1.18,0-4.23,2.07-7.53,2.07s-6.35-2.07-7.53-2.07h0c-1.21.06-5.16,4.72-6.1,6.36S112.91,147.25,118.8,154.92Zm27.88-3.42,15.84-11.88s.95.13.52.9c0,0-15.78,12.85-16.36,12.85h-4.1c-.57,0-16.36-12.85-16.36-12.85-.43-.77.51-.9.51-.9l15.85,11.88a.59.59,0,0,0,.73-.63c-3-6.89-14.27-12.28-14.27-12.28a26.53,26.53,0,0,1,15.59,11.26,26.53,26.53,0,0,1,15.59-11.26S148.92,144,146,150.87C146,150.87,145.92,151.5,146.68,151.5Zm-25.44,109-2.83,17.63,10.63,1.7.45-2.79L122,275.8,124.37,261ZM144.61,120.4c7.3,0,13.21-6.38,13.21-14.24a13.21,13.21,0,1,0-26.41,0C131.41,114,137.32,120.4,144.61,120.4ZM109.22,270.87a9.71,9.71,0,0,0,1.94-3.37,9.9,9.9,0,0,0,.61-3.89,8.31,8.31,0,0,0-.93-3.44,8.87,8.87,0,0,0-2.26-2.77,11.09,11.09,0,0,0-3.42-1.9,10.87,10.87,0,0,0-3.82-.64,8.93,8.93,0,0,0-3.48.76A8.4,8.4,0,0,0,95,257.73a10,10,0,0,0-2,3.42,9.92,9.92,0,0,0-.59,3.84,8.83,8.83,0,0,0,3.11,6.3A10.1,10.1,0,0,0,99,273.21a10.46,10.46,0,0,0,3.87.63,9.14,9.14,0,0,0,3.52-.83A8.67,8.67,0,0,0,109.22,270.87Zm-1.32-4.52a7.49,7.49,0,0,1-1.29,2.35,6.09,6.09,0,0,1-1.87,1.54,5.54,5.54,0,0,1-2.3.65,6.17,6.17,0,0,1-2.52-.36,6.11,6.11,0,0,1-2.18-1.28,5.78,5.78,0,0,1-1.38-1.95,6,6,0,0,1-.5-2.37A7.83,7.83,0,0,1,97.58,260a6.33,6.33,0,0,1,1.86-1.54,5.74,5.74,0,0,1,2.28-.67,6,6,0,0,1,2.54.36,6.13,6.13,0,0,1,2.21,1.3,5.75,5.75,0,0,1,1.37,2,6.19,6.19,0,0,1,.5,2.36A7.36,7.36,0,0,1,107.9,266.35Zm13.54,27.75a1.37,1.37,0,0,1,.49-.18,3.17,3.17,0,0,1,.53-.05,2.5,2.5,0,0,1,1.05.26,2.42,2.42,0,0,1,.88.68l1.68-1.77a5,5,0,0,0-1.69-1,5.5,5.5,0,0,0-1.88-.34,6,6,0,0,0-1.52.19,4.15,4.15,0,0,0-1.35.61,3.19,3.19,0,0,0-1,1.06,3.12,3.12,0,0,0-.36,1.55,2.93,2.93,0,0,0,.24,1.25,2.6,2.6,0,0,0,.62.87,3.05,3.05,0,0,0,.9.59,7.44,7.44,0,0,0,1,.4l1,.32a3.54,3.54,0,0,1,.7.32,1.55,1.55,0,0,1,.44.39.91.91,0,0,1,.15.52,1.22,1.22,0,0,1-.12.56,1.06,1.06,0,0,1-.33.37,1.48,1.48,0,0,1-.48.2,2.76,2.76,0,0,1-.57.06,2.88,2.88,0,0,1-1.3-.33,3.15,3.15,0,0,1-1-.83l-1.72,1.76a4.73,4.73,0,0,0,1.81,1.15,6.24,6.24,0,0,0,2.26.41,5.74,5.74,0,0,0,1.55-.21,4.25,4.25,0,0,0,1.33-.66,3.3,3.3,0,0,0,.93-1.13,3.58,3.58,0,0,0,.35-1.62,2.66,2.66,0,0,0-.32-1.36,3.12,3.12,0,0,0-.82-.91,4,4,0,0,0-1.09-.59c-.4-.15-.78-.29-1.15-.41s-.49-.16-.69-.24a3.3,3.3,0,0,1-.53-.25,1,1,0,0,1-.34-.33.89.89,0,0,1-.11-.46,1,1,0,0,1,.14-.53A1.26,1.26,0,0,1,121.44,294.1ZM110,298.36h4.52v-2.11H110V294.2h4.78V292h-7.31v10.87h7.58v-2.25h-5Zm60.09-1.73a3.45,3.45,0,0,0-1.14-.72,3.69,3.69,0,0,0-1.36-.25l-.39,0a1.54,1.54,0,0,0-.37.09l0-.08,2.68-3.71h-3.12l-2.62,3.91a9.44,9.44,0,0,0-.87,1.61,4.3,4.3,0,0,0-.34,1.75,3.73,3.73,0,0,0,.34,1.62,3.49,3.49,0,0,0,.92,1.22,4,4,0,0,0,1.35.78,5.24,5.24,0,0,0,3.32,0,4.06,4.06,0,0,0,1.36-.78,3.47,3.47,0,0,0,.92-1.24,3.88,3.88,0,0,0,.34-1.66,3.61,3.61,0,0,0-.29-1.45A3.72,3.72,0,0,0,170.11,296.63Zm-2,3.89a1.68,1.68,0,0,1-1.25.48,1.58,1.58,0,0,1-1.24-.51,1.73,1.73,0,0,1-.47-1.21,1.7,1.7,0,0,1,.48-1.25,1.71,1.71,0,0,1,1.25-.47,1.63,1.63,0,0,1,1.23.48,1.71,1.71,0,0,1,.47,1.22A1.74,1.74,0,0,1,168.14,300.52ZM136.37,292H127.6v2.24h3.07v8.63h2.63v-8.63h3.07Zm6.43,2.62,1.33,1.83,2-1.57v8h2.57V292h-2.35Zm16.3-1.87a4.06,4.06,0,0,0-1.36-.78,5.46,5.46,0,0,0-3.33,0,4.06,4.06,0,0,0-1.36.78,3.69,3.69,0,0,0-.92,1.24,4,4,0,0,0-.34,1.66,3.42,3.42,0,0,0,.3,1.45,3.32,3.32,0,0,0,.78,1.12,3.41,3.41,0,0,0,1.13.72,3.66,3.66,0,0,0,1.36.26l.4,0a2,2,0,0,0,.37-.1l0,.05-2.7,3.75h3.11l2.62-3.92a10.67,10.67,0,0,0,.88-1.6,4.56,4.56,0,0,0,.34-1.76A3.8,3.8,0,0,0,160,294,3.76,3.76,0,0,0,159.1,292.74Zm-1.8,4.05a1.66,1.66,0,0,1-1.25.48,1.6,1.6,0,0,1-1.23-.49,1.89,1.89,0,0,1,0-2.48,1.64,1.64,0,0,1,1.26-.49,1.57,1.57,0,0,1,1.24.52,1.79,1.79,0,0,1,.45,1.22A1.67,1.67,0,0,1,157.3,296.79ZM136.61,300a1.5,1.5,0,0,0-.6.12,1.56,1.56,0,0,0-.5.33,1.39,1.39,0,0,0-.34.49,1.49,1.49,0,0,0,0,1.17,1.32,1.32,0,0,0,.34.47,1.6,1.6,0,0,0,2.18,0,1.41,1.41,0,0,0,.46-1.08,1.39,1.39,0,0,0-.46-1.07A1.49,1.49,0,0,0,136.61,300Zm44.29-3.32a3.53,3.53,0,0,0-1.26-.66,5.44,5.44,0,0,0-1.53-.21l-.55,0a3.79,3.79,0,0,0-.54.09l.09-1.72h4.38V292h-6.67l-.26,6.21a8.29,8.29,0,0,1,1.33-.34,7.53,7.53,0,0,1,1.33-.13,4.4,4.4,0,0,1,.8.07,2.33,2.33,0,0,1,.71.27,1.49,1.49,0,0,1,.51.52,1.42,1.42,0,0,1,.21.8,1.46,1.46,0,0,1-.49,1.18,1.76,1.76,0,0,1-1.14.4,1.78,1.78,0,0,1-1.75-1.31l-2.35.72a3.4,3.4,0,0,0,.57,1.16,3.71,3.71,0,0,0,.94.87,4.44,4.44,0,0,0,1.21.55,5.45,5.45,0,0,0,1.41.19,5.07,5.07,0,0,0,1.55-.24,4.2,4.2,0,0,0,1.34-.71,3.58,3.58,0,0,0,.95-1.21,4,4,0,0,0,.35-1.73,3.38,3.38,0,0,0-.31-1.5A3.07,3.07,0,0,0,180.9,296.68Z" transform="translate(-4.73 -2.11)"/></svg>