<?xml version="1.0" encoding="UTF-8"?>
<svg id="Layer_2" xmlns="http://www.w3.org/2000/svg" viewBox="0 0 216 239">
<defs>
<style>.cls-1{fill:#fff;}</style>
</defs>
<g id="Layer_1-2">
<path class="cls-1" d="m26.04,62.06c.45-.78.78-1.62,1.01-2.54.23-.92.28-1.83.16-2.74-.12-.91-.44-1.78-.97-2.6-.52-.83-1.31-1.54-2.35-2.15-1.12-.65-2.18-.99-3.16-1.04-.99-.04-1.89.12-2.72.47-.83.36-1.57.87-2.23,1.54-.66.67-1.21,1.39-1.66,2.17l-2.44,4.23,11.92,6.88,2.44-4.23Zm-11.32-3.73l1.02-1.77c.32-.55.69-1.07,1.12-1.55.43-.49.92-.86,1.48-1.13.56-.27,1.19-.39,1.89-.36.7.03,1.48.29,2.33.78.81.47,1.4.99,1.76,1.58.37.59.58,1.19.63,1.81.05.62-.02,1.25-.2,1.87-.19.62-.44,1.21-.76,1.76l-1.02,1.77-8.25-4.76Zm53.1-39.84c.66.7,1.41,1.24,2.26,1.61.84.37,1.76.55,2.75.56.99.01,2-.18,3.05-.57,1.02-.38,1.89-.81,2.6-1.28.72-.47,1.34-.99,1.88-1.55l-2.51-6.68-4.93,1.86.71,1.89,2.71-1.02,1.23,3.27c-.61.58-1.41,1.05-2.39,1.42-.72.27-1.4.39-2.06.37-.65-.02-1.26-.17-1.81-.45-.55-.27-1.05-.66-1.47-1.16-.43-.5-.78-1.09-1.03-1.78-.25-.67-.38-1.33-.38-1.97,0-.65.11-1.26.34-1.83.23-.57.57-1.08,1.04-1.53.46-.45,1.03-.8,1.71-1.06.69-.26,1.38-.38,2.06-.34.68.03,1.26.17,1.72.41l.94-2.31c-.71-.29-1.54-.42-2.51-.4-.97.02-1.97.23-3,.62-1,.38-1.86.88-2.59,1.52-.73.64-1.3,1.36-1.7,2.18-.41.81-.63,1.71-.68,2.67-.04.97.13,1.97.52,3,.38,1.01.9,1.86,1.55,2.56m22.38-2.76l-.97-5.75,1.76-.3,4.11,5.22,2.91-.49-4.64-5.41c.92-.38,1.61-.93,2.06-1.64.45-.71.59-1.56.43-2.55-.12-.72-.36-1.3-.73-1.75-.37-.45-.81-.79-1.33-1.02-.52-.23-1.09-.36-1.71-.39-.62-.03-1.26,0-1.89.11l-4.72.79,2.29,13.58,2.42-.41Zm.24-11.91c.31-.05.63-.08.96-.08.34,0,.64.04.92.14.28.1.52.25.73.46.21.21.34.5.4.87.07.41.04.76-.1,1.05-.13.29-.33.53-.58.72-.25.19-.54.33-.88.44-.34.11-.68.19-1.02.25l-1.97.33-.64-3.82,2.18-.37Zm-43.51,32.73l-6.6-8.34.03-.02,11.72,4.29,2.44-1.93-8.54-10.8-1.92,1.52,6.39,8.08-.03.02-11.41-4.11-2.55,2.01,8.54,10.8,1.92-1.52Zm-6.79,6.31l-1.65-1.42-4.59,5.31-2.94-2.54,4.13-4.78-1.56-1.35-4.13,4.79-2.65-2.29,4.36-5.05-1.62-1.4-5.96,6.91,10.42,8.99,6.19-7.17Zm124.52-9.92c.37.62.87,1.17,1.49,1.66.62.49,1.27.85,1.96,1.07.69.22,1.37.3,2.04.24.68-.06,1.33-.26,1.97-.61.64-.35,1.21-.85,1.73-1.5l5.41-6.83-1.92-1.52-5.35,6.75c-.25.32-.54.6-.86.84-.33.25-.68.42-1.06.51-.38.1-.79.1-1.22,0-.43-.09-.87-.32-1.33-.68-.46-.36-.78-.74-.97-1.14-.19-.4-.28-.79-.28-1.19,0-.39.09-.78.25-1.15.16-.37.37-.72.62-1.03l5.35-6.75-1.92-1.52-5.41,6.83c-.52.65-.87,1.32-1.07,2.02-.2.7-.24,1.38-.14,2.06.1.67.34,1.32.71,1.94m29.17,36.55l5.32-2.29,2.4,5.57,1.89-.81-2.4-5.57,3.47-1.49,2.54,5.91,1.97-.85-3.51-8.16-12.65,5.44.97,2.25Zm5.23,14.83l13.28-3.65-.65-2.36-13.28,3.65.65,2.36Zm2.91,16.81l2.16-.27-.88-6.96,3.86-.49.8,6.27,2.04-.26-.8-6.27,3.47-.44.84,6.62,2.12-.27-1.15-9.05-13.66,1.74,1.19,9.39Zm-12.75-40.56l11.78-7.12-1.27-2.1-11.78,7.12,1.27,2.1Zm-40.5-39.83l-6.51-2.62,1.45-3.61,5.86,2.36.77-1.91-5.86-2.36,1.31-3.25,6.19,2.5.8-1.98-8.46-3.41-5.15,12.77,8.78,3.54.81-2.02Zm28.88,23.97l8.13-6.86.03.03-3.91,11.85,2.01,2.38,10.52-8.88-1.58-1.87-7.88,6.65-.02-.03,3.75-11.54-2.1-2.48-10.52,8.88,1.58,1.87Zm-48.27-28.23l8.35-12.26-2.58-.57-6.01,9.53-.08-.02-1.43-11.17-2.68-.59,2.36,14.62,2.07.45Zm-23.57-4.21c.63.66,1.4,1.18,2.29,1.57.89.38,1.87.59,2.93.63,1.08.03,2.07-.12,2.99-.44.92-.33,1.72-.8,2.4-1.42.68-.62,1.22-1.37,1.62-2.24.4-.88.61-1.85.65-2.93.03-1.1-.12-2.1-.46-3-.34-.9-.83-1.67-1.48-2.31-.64-.64-1.41-1.15-2.31-1.51-.9-.37-1.88-.56-2.96-.6-1.06-.03-2.05.11-2.96.41-.91.31-1.7.76-2.38,1.37-.67.6-1.21,1.34-1.61,2.22-.4.88-.61,1.87-.65,2.97-.03,1.08.12,2.06.46,2.96.34.9.83,1.68,1.47,2.34m1.14-7.19c.24-.6.58-1.12,1.01-1.56.43-.44.94-.78,1.52-1.02.59-.24,1.23-.35,1.95-.33.71.02,1.35.17,1.93.45.57.28,1.06.65,1.46,1.12.4.47.7,1.01.91,1.62.21.62.3,1.28.28,1.99-.02.74-.16,1.41-.4,2.02-.25.61-.58,1.13-1.02,1.57-.43.44-.95.78-1.54,1.01-.59.24-1.24.34-1.94.32-.7-.02-1.33-.17-1.9-.44-.57-.27-1.06-.64-1.46-1.1-.41-.46-.71-1.01-.92-1.63-.21-.62-.3-1.3-.28-2.04.02-.71.16-1.37.4-1.97M13.26,135c.22-.38.37-.79.44-1.24.07-.45.05-.91-.07-1.37-.12-.47-.32-.88-.6-1.23-.28-.35-.61-.65-.99-.87-.38-.22-.79-.37-1.24-.44-.45-.07-.9-.05-1.37.07-.46.12-.88.32-1.23.6-.36.28-.65.61-.87.99-.22.38-.37.79-.44,1.24-.07.45-.05.9.07,1.37.12.46.32.88.6,1.23.28.36.61.65.99.87.38.22.79.37,1.24.45.45.07.9.05,1.37-.07.46-.12.87-.32,1.23-.6.36-.28.65-.61.87-.98m189-27.03l-.3,4.87c-.05.9.02,1.8.23,2.72.21.92.57,1.76,1.08,2.52.51.76,1.19,1.39,2.03,1.9.84.51,1.86.8,3.06.87,1.29.08,2.39-.08,3.29-.48.9-.4,1.64-.94,2.22-1.64.58-.69,1.01-1.49,1.3-2.37.29-.89.46-1.79.51-2.68l.3-4.87-13.74-.83Zm11.37,5.19c-.04.64-.14,1.26-.31,1.89-.17.63-.44,1.18-.82,1.67-.38.49-.89.88-1.53,1.17-.64.29-1.45.4-2.44.34-.93-.06-1.69-.26-2.28-.63-.59-.36-1.05-.81-1.37-1.34-.32-.53-.54-1.12-.65-1.76-.11-.64-.15-1.28-.11-1.92l.12-2.04,9.51.58-.12,2.04ZM18.43,79.49l-5.52-1.9.58-1.69,6.55-1.12.96-2.79-6.97,1.49c.11-.99-.04-1.86-.45-2.59-.41-.74-1.09-1.27-2.03-1.59-.69-.24-1.32-.3-1.89-.2-.57.11-1.08.33-1.53.68-.45.35-.84.79-1.16,1.32-.33.53-.59,1.1-.81,1.72l-1.56,4.52,13.02,4.48.8-2.32Zm-6.49-5.46c-.06.35-.16.69-.27,1.02l-.65,1.89-3.66-1.26.72-2.1c.1-.3.23-.59.39-.88.16-.29.34-.54.57-.74.22-.2.47-.34.75-.42.28-.08.6-.06.95.06.39.13.69.33.88.59.19.26.31.54.36.85.04.31.03.64-.03.99m196.83,57.42c-.23-.38-.52-.71-.87-.99-.36-.28-.77-.48-1.23-.59-.46-.12-.92-.14-1.37-.07-.45.07-.86.22-1.24.45-.38.22-.71.52-.99.87-.28.36-.48.77-.6,1.23-.12.47-.14.92-.07,1.37.07.45.22.86.45,1.24.22.38.51.71.87.99.36.28.77.48,1.23.6.46.12.92.14,1.37.07.45-.07.86-.22,1.24-.44.38-.22.71-.52.99-.87.28-.36.48-.77.6-1.23.12-.46.14-.92.07-1.37-.07-.45-.22-.86-.44-1.24M14.4,98.59l-2.94-1.69.87-5.91,3.3-.81.41-2.77-14.48,3.87-.31,2.1,12.75,7.92.4-2.71Zm-4.89-2.82l-5.23-2.95,5.85-1.29-.62,4.23Zm.99,23.62c.87-.41,1.61-.97,2.21-1.67.61-.69,1.06-1.51,1.37-2.45.31-.94.43-1.96.37-3.08-.06-1.09-.2-2.04-.43-2.87-.23-.83-.53-1.58-.91-2.26l-7.13.37.27,5.26,2.02-.1-.15-2.89,3.49-.18c.36.76.57,1.66.63,2.71.04.77-.05,1.45-.27,2.07-.22.62-.55,1.15-.98,1.59-.43.44-.95.8-1.55,1.05-.6.26-1.27.41-2.01.45-.71.04-1.38-.04-2-.24-.62-.2-1.17-.49-1.64-.88-.48-.39-.86-.87-1.15-1.45-.29-.57-.45-1.23-.49-1.95-.04-.74.06-1.43.3-2.07.24-.64.54-1.15.91-1.52l-1.91-1.59c-.49.58-.87,1.34-1.14,2.27-.27.93-.38,1.94-.32,3.04.05,1.06.28,2.04.66,2.92.38.89.9,1.65,1.56,2.28.66.64,1.44,1.12,2.34,1.45.91.34,1.91.48,3.01.42,1.07-.06,2.04-.29,2.91-.71m79.32,79.79l-2.18,13.59,8.2,1.32.35-2.15-5.78-.93,1.84-11.44-2.42-.39Zm84.05-25.65l9.89,9.58,1.7-1.76-9.89-9.58-1.71,1.76Zm-46.1-55.72c4.54-5.91-8.66-20.3-9.39-21.57-.72-1.26-3.77-4.85-4.71-4.9h0s0,0-.01,0c0,0,0,0,0,0-.91,0-3.26,1.59-5.8,1.59s-4.9-1.59-5.8-1.59c0,0,0,0-.01,0,0,0,0,0-.01,0h0c-.93.05-3.98,3.65-4.71,4.91-.73,1.27-13.93,15.66-9.39,21.57,2.09,2.72,8.43,3.79,9.16,4.52.73.73-.46,10.13-1.23,20.82-.63,8.79-1.57,42.18-1.78,49.63,2.06.33,4.15.59,6.26.77-.06-3.44.83-15.43.83-22.9,0-8.14-1.31-24.04-1.05-26.66.13-1.31,4.77-3.85,5.3-5.42.17-.52.43-1.12.22-1.21-3.23-1.2-5.59-4.93-5.59-9.35,0-5.39,3.5-9.09,7.82-9.09s7.82,3.7,7.82,9.09c0,4.42-2.36,8.16-5.59,9.35-.18.07.05.7.22,1.21.53,1.57,5.17,4.11,5.3,5.42.26,2.63-1.05,18.52-1.05,26.66,0,7.48.88,19.48.83,22.91,2.09-.18,4.17-.43,6.22-.76-.2-7.41-1.15-40.85-1.78-49.65-.77-10.68-1.95-20.09-1.23-20.82.73-.73,7.07-1.8,9.16-4.52m-20.93-3.12c-2.3-5.31-11-9.47-11-9.47,7.12,1.88,10.81,6.77,12.02,8.68,1.21-1.91,4.89-6.8,12.02-8.68,0,0-8.71,4.16-11.01,9.47,0,.59.57.49.57.49l12.22-9.16s.73.1.4.69c0,0-12.17,9.91-12.61,9.91h-3.16c-.44,0-12.62-9.91-12.62-9.91-.33-.59.4-.69.4-.69l12.22,9.16c.6,0,.57-.49.57-.49m1.45,32.02c-.26.38-.38.84-.42,1.2,0,0,0,0,0,0-.03-.36-.15-.82-.41-1.2-.42-.6-1.9-1.17-2.88.15-.98,1.31.34,3.46,1.21,4.49.83.98,1.97,2.62,2.08,2.79,0,0,.01,0,.02,0,.11-.17,1.26-1.81,2.08-2.79.87-1.03,2.18-3.18,1.21-4.49-.98-1.32-2.47-.75-2.88-.15m87.04-.8l-1.91-.96-4.9,9.73,1.91.96,1.9-3.77,10.39,5.23,1.1-2.19-10.38-5.23,1.9-3.77Zm-78.68,68.43c.89-.08,1.78-.29,2.66-.64.88-.35,1.66-.83,2.33-1.45.67-.62,1.2-1.38,1.57-2.29.38-.91.51-1.96.4-3.16-.11-1.29-.44-2.35-.97-3.18-.53-.83-1.18-1.48-1.95-1.95-.77-.47-1.62-.78-2.54-.93-.92-.15-1.83-.19-2.72-.11l-4.86.44,1.23,13.71,4.86-.43Zm-1.43-11.59c.63-.06,1.27-.05,1.92.02.64.07,1.24.26,1.78.56.54.3,1,.75,1.38,1.34.38.59.61,1.37.7,2.36.08.93-.01,1.71-.28,2.35-.27.64-.64,1.16-1.12,1.56-.48.4-1.03.7-1.65.91-.62.2-1.24.34-1.88.39l-2.03.18-.85-9.49,2.03-.18Zm21.71-33.42c.96,3.73,2.32,12.39,2.82,18.52,32.17-12.7,54.93-44.06,54.93-80.74,0-47.92-38.85-86.76-86.77-86.76S21.15,59.2,21.15,107.12c0,36.63,22.7,67.96,54.8,80.69.5-6.12,1.85-14.75,2.81-18.47,1.45-5.64,1.45-7.45,1.27-17.09-.18-9.64,2.48-55.2,2.53-56.52.21-5.84-11.7-.11-13.74-2.4-2.75-3.09-4.64-21.98-4.29-28.5,0-.06,0-.13.01-.19l-1.91,2.21c-.88,1.07-2.57,1.15-3.78.16-1.21-.99-1.49-2.66-.62-3.74l6.48-7.97c-.88-1.79-.22-4.15,1.66-5.56,1.13-.84,2.46-1.16,3.66-.99l4.61-5.68c2.3-2.64,6.82,1.77,4.76,4.35l-7.65,8.85c.14,5.09-.79,17.29,8.74,12.67,3.62-1.76,10.72.6,15.45-1.03,2.58-.89,3.2-2.02,4.13-3.28.07-.12.31-.82.39-1.09,0-.03.08-.03.18-.02-2.91-2.57-4.79-6.66-4.79-11.27,0-.83.06-1.64.18-2.42l-15.29-7.35,27.1-14.55,27.1,14.55-8.24,4.3.49,12.76-2.15-.06.62-12.24-5.97,2.58c.12.79.18,1.61.18,2.44,0,4.59-1.86,8.65-4.75,11.23.06,0,.11,0,.11.05.01.41.34.97.44,1.1.97,1.28,3.05,3.88,5.44,5.07,3.27,1.64,12.5,4.09,16,16.18,2,6.91,2.73,10.91,4.18,23.27,1.45,12.36,3.82,15.09,3.64,16.91-.04.36-.48.81-1.17,1.29.4.96.5,2.22.5,3.39,0,2.28-1.84,4.07-4.12,4.12-4.44.1-4.25-1.41-4.15-3.33-1.09.6-1.87,1.1-1.97,1.43-.36,1.27,1.82,9.64,1.64,19.27-.18,9.63-.18,11.45,1.27,17.09m-29.09-78.13c5.62,0,10.18-4.92,10.18-10.98s-4.56-10.43-10.18-10.43-10.18,4.37-10.18,10.43,4.56,10.98,10.18,10.98m86.28,73.93c.18.57.22,1.17.12,1.8-.1.63-.37,1.25-.81,1.84-.42.57-.9,1.02-1.44,1.33-.54.31-1.1.5-1.71.57-.6.07-1.22,0-1.85-.19-.63-.19-1.25-.51-1.86-.95-.58-.42-1.04-.9-1.4-1.45-.36-.54-.59-1.12-.71-1.73-.12-.61-.11-1.22.03-1.85.14-.62.41-1.22.84-1.8.33-.45.76-.84,1.29-1.18.53-.34,1.1-.51,1.71-.51l-.09-2.38c-.45,0-.9.09-1.34.25-.44.16-.86.37-1.26.62-.4.25-.78.55-1.13.88-.35.34-.66.68-.92,1.04-.63.86-1.07,1.75-1.34,2.68-.26.93-.34,1.85-.24,2.75.11.91.41,1.78.9,2.61.49.84,1.18,1.58,2.07,2.23.87.64,1.77,1.07,2.7,1.3.93.23,1.85.27,2.75.13.9-.15,1.76-.48,2.58-.99.82-.52,1.55-1.21,2.18-2.08.7-.95,1.14-1.91,1.32-2.87.18-.96.14-1.91-.11-2.86l-2.27.77Zm-78,61.36c-.4,0-.72.12-.96.37-.24.25-.36.57-.36.97,0,.37.12.69.36.93.24.25.55.37.95.37s.71-.12.96-.37c.24-.24.37-.56.37-.95,0-.36-.12-.67-.35-.94-.23-.26-.55-.39-.95-.39m-68.89-48.22l-3.79,4.07-4.71-4.38,3.79-4.07-1.79-1.67-9.38,10.08,1.79,1.67,4.16-4.47,4.71,4.38-4.16,4.47,1.79,1.67,9.38-10.08-1.79-1.67Zm14.84,10.7c-.6-.76-1.36-1.42-2.27-1.99-.91-.56-1.83-.93-2.78-1.11-.94-.18-1.86-.18-2.74,0-.88.19-1.72.57-2.49,1.13-.78.56-1.46,1.32-2.03,2.26-.56.92-.92,1.85-1.07,2.8-.15.95-.11,1.87.11,2.76.22.89.62,1.72,1.21,2.49.58.77,1.32,1.44,2.23,2,.92.56,1.86.93,2.82,1.1.96.17,1.89.15,2.79-.05.9-.2,1.74-.58,2.52-1.15.78-.56,1.45-1.31,2.01-2.22.58-.94.94-1.88,1.09-2.83.15-.95.11-1.87-.13-2.74-.24-.88-.66-1.69-1.26-2.46m-1.22,4.77c-.12.64-.37,1.26-.75,1.87-.39.63-.84,1.15-1.35,1.55-.52.4-1.07.69-1.67.86-.6.17-1.21.2-1.84.12-.63-.09-1.24-.32-1.84-.68-.6-.37-1.08-.81-1.43-1.33-.36-.52-.6-1.08-.72-1.69-.12-.6-.12-1.23,0-1.87.13-.64.39-1.28.77-1.91.37-.61.81-1.11,1.33-1.51.51-.4,1.06-.69,1.65-.86.59-.17,1.2-.21,1.83-.13.63.08,1.24.3,1.85.68.61.37,1.09.82,1.45,1.35.36.53.6,1.09.72,1.69.12.6.11,1.23-.01,1.86m9.18,13.8c.73.64,1.6,1.13,2.6,1.48,1.01.36,2.01.52,2.98.48.98-.04,1.88-.25,2.72-.63.84-.39,1.58-.94,2.22-1.66.64-.71,1.14-1.58,1.5-2.6.36-1.04.52-2.04.46-3-.05-.96-.29-1.84-.71-2.65-.42-.8-1-1.52-1.74-2.14-.75-.62-1.63-1.11-2.64-1.46-1-.35-1.99-.52-2.95-.5-.96.02-1.86.21-2.68.58-.82.37-1.56.92-2.2,1.63-.64.72-1.15,1.59-1.51,2.63-.36,1.01-.51,2-.45,2.96.05.96.29,1.85.69,2.67.41.82.97,1.55,1.71,2.19m.57-6.94c.24-.67.56-1.26.98-1.76.42-.5.89-.9,1.44-1.19.54-.29,1.13-.46,1.76-.52.63-.05,1.28.04,1.96.27.67.24,1.24.57,1.7,1.01.47.44.82.94,1.06,1.51.24.57.37,1.17.38,1.82.01.65-.1,1.31-.34,1.98-.24.7-.58,1.3-.99,1.8-.42.51-.9.91-1.45,1.19-.55.29-1.14.46-1.77.5-.63.04-1.28-.05-1.94-.28-.66-.23-1.22-.56-1.68-.99-.46-.43-.82-.93-1.06-1.49-.25-.57-.38-1.18-.39-1.84-.01-.66.11-1.33.35-2.03m-47.74-50.57c.24.14.46.32.65.54.19.22.36.46.48.71.22.43.33.9.35,1.43.01.53-.07.98-.26,1.36l2.28.63c.2-.7.24-1.42.14-2.18-.11-.75-.32-1.44-.64-2.06-.28-.56-.63-1.06-1.05-1.53-.42-.46-.88-.83-1.39-1.1-.51-.27-1.06-.42-1.64-.45-.58-.03-1.19.11-1.81.43-.58.29-1.01.63-1.31,1.01-.29.38-.5.79-.61,1.22-.11.43-.16.87-.13,1.33.03.45.08.89.15,1.32.07.45.13.87.19,1.28s.08.78.05,1.11c-.03.33-.11.63-.24.89-.14.26-.37.47-.69.64-.34.17-.65.25-.94.23-.29-.02-.57-.1-.83-.24-.26-.14-.49-.32-.69-.56-.2-.23-.36-.48-.49-.73-.25-.49-.38-1.04-.39-1.67-.01-.63.11-1.2.38-1.71l-2.25-.82c-.33.78-.45,1.62-.36,2.54.09.91.34,1.77.75,2.56.31.6.68,1.13,1.12,1.59.44.46.92.81,1.45,1.05.53.24,1.1.36,1.72.35.61,0,1.25-.18,1.91-.51.6-.31,1.05-.67,1.33-1.1.29-.43.48-.89.57-1.38.08-.49.1-.99.05-1.49-.05-.5-.12-.98-.19-1.44-.07-.4-.13-.77-.18-1.11-.04-.34-.05-.65,0-.92.04-.27.12-.52.26-.73.14-.22.35-.4.62-.54.3-.15.59-.22.87-.19.28.02.54.11.78.25m10.1,15.64c.33.45.58.97.75,1.58.16.6.16,1.2-.02,1.78l2.3.62c.13-.43.18-.89.16-1.35-.02-.47-.1-.93-.22-1.39-.12-.46-.29-.91-.51-1.34-.22-.43-.46-.83-.72-1.18-.63-.85-1.36-1.54-2.17-2.07-.81-.53-1.66-.87-2.56-1.04-.9-.17-1.82-.14-2.76.08-.94.22-1.85.66-2.74,1.32-.86.64-1.54,1.37-2.04,2.19-.5.82-.81,1.68-.94,2.59-.13.9-.07,1.82.18,2.76.25.94.7,1.84,1.34,2.7.7.95,1.49,1.65,2.35,2.11.86.46,1.79.7,2.76.74l-.06-2.4c-.59,0-1.18-.14-1.75-.42-.57-.28-1.08-.72-1.52-1.32-.42-.57-.71-1.16-.85-1.76-.14-.6-.15-1.21-.04-1.8.11-.59.36-1.17.73-1.71.37-.55.85-1.05,1.46-1.49.57-.42,1.17-.73,1.8-.91.62-.18,1.24-.24,1.86-.17.61.07,1.2.26,1.76.58.55.31,1.05.76,1.47,1.33m101.1,45.82l-3.2-13.39-2.38.57,3.2,13.39,2.38-.57Zm39.12-28.45c.05-.84-.24-1.66-.86-2.44-.45-.57-.95-.96-1.48-1.18-.54-.22-1.09-.3-1.65-.25-.56.05-1.13.21-1.69.49-.56.27-1.1.61-1.61,1.01l-3.74,2.98,8.57,10.78,1.92-1.53-3.63-4.56,1.4-1.11,6.13,2.58,2.31-1.84-6.68-2.49c.62-.78.96-1.59,1.01-2.43m-2.52.95c-.13.29-.31.56-.56.82-.24.26-.5.5-.77.71l-1.57,1.25-2.41-3.03,1.74-1.38c.24-.19.51-.37.8-.54.29-.16.58-.27.87-.32.29-.05.58-.03.86.05.28.08.54.27.77.57.26.32.4.65.42.97.02.32-.03.63-.16.91m-11.43,4.27l-1.05-1.87-9.49,5.34,1.05,1.86,3.68-2.07,5.7,10.14,2.14-1.2-5.7-10.14,3.68-2.07Zm-11.67,12.74c-.4-.33-.83-.57-1.31-.71-.47-.14-.97-.21-1.47-.21-.51,0-.99,0-1.45.03-.41.03-.78.04-1.13.05-.34,0-.65-.02-.92-.09-.27-.07-.5-.18-.7-.34-.2-.16-.35-.39-.46-.67-.12-.32-.15-.61-.1-.89.06-.28.17-.53.33-.75.16-.22.37-.42.61-.58.24-.17.5-.3.76-.4.45-.17.93-.23,1.46-.18.52.05.97.18,1.33.4l.87-2.2c-.67-.27-1.39-.4-2.15-.38-.76.02-1.47.16-2.12.41-.58.22-1.13.51-1.63.87-.51.37-.92.78-1.25,1.26-.33.47-.54,1-.63,1.58-.1.58-.02,1.19.23,1.85.23.61.52,1.08.87,1.41.35.34.73.58,1.14.75.42.16.85.26,1.3.28.45.03.89.02,1.33,0,.45-.02.88-.04,1.29-.05.41-.02.78,0,1.11.07.33.06.61.18.86.34.24.16.43.42.56.76.13.35.17.67.12.96-.05.29-.16.56-.32.8-.16.24-.37.45-.63.62-.25.17-.52.31-.78.41-.51.19-1.08.26-1.7.2-.62-.06-1.18-.24-1.66-.56l-1.06,2.15c.74.41,1.57.63,2.48.63.92,0,1.8-.15,2.63-.46.63-.24,1.2-.55,1.71-.93.51-.39.91-.83,1.2-1.33.3-.5.48-1.05.53-1.67.06-.61-.04-1.26-.3-1.96-.24-.63-.55-1.11-.95-1.45m-39.51,18.2c-21.71,0-39.31,4.43-39.31,9.9s17.6,9.9,39.31,9.9,39.31-4.43,39.31-9.9-17.6-9.9-39.31-9.9m-20.33,14.22h-5.81v-8.33h5.6v1.7h-3.66v1.58h3.46v1.61h-3.46v1.73h3.87v1.72Zm4-5.7c.06.1.15.18.26.25.11.07.25.13.41.19.16.06.33.12.53.18.28.09.58.2.88.31.31.11.58.26.84.45.25.19.46.42.62.7.16.28.25.63.25,1.04,0,.48-.09.89-.27,1.24-.18.35-.41.64-.71.87-.3.23-.64.39-1.02.51-.38.11-.78.16-1.19.16-.6,0-1.17-.1-1.73-.31-.56-.21-1.02-.51-1.39-.89l1.32-1.34c.2.25.47.46.81.63.33.17.66.25.99.25.15,0,.29-.02.44-.05.14-.03.26-.08.37-.15.11-.07.19-.16.25-.28.06-.12.09-.26.09-.42s-.04-.29-.12-.4c-.08-.11-.19-.21-.34-.3-.15-.09-.33-.17-.54-.25-.21-.08-.46-.16-.74-.24-.27-.09-.53-.19-.78-.31-.26-.12-.48-.27-.68-.45-.2-.18-.36-.41-.48-.67-.12-.26-.18-.58-.18-.96,0-.46.09-.86.28-1.19.19-.33.44-.6.74-.81.31-.21.65-.37,1.03-.46.39-.1.77-.15,1.17-.15.47,0,.95.09,1.44.26.49.17.92.43,1.29.77l-1.28,1.35c-.17-.22-.4-.39-.68-.52-.28-.13-.55-.19-.81-.19-.13,0-.27.01-.41.03-.14.03-.26.07-.37.14-.11.06-.2.15-.28.26-.08.11-.11.24-.11.41,0,.14.03.26.09.35m8.8,5.7h-2.01v-6.61h-2.35v-1.72h6.72v1.72h-2.35v6.61Zm3.26-.21c-.23.22-.51.33-.83.33-.16,0-.32-.03-.46-.09-.15-.06-.27-.14-.38-.24-.11-.1-.2-.22-.26-.36-.06-.14-.09-.29-.09-.45s.03-.31.09-.45c.06-.14.15-.26.26-.37.11-.11.24-.19.38-.26.15-.06.3-.09.46-.09.32,0,.6.11.83.33.23.22.35.49.35.82s-.12.6-.35.82m7.28.21h-1.97v-6.12l-1.55,1.2-1.02-1.4,2.74-2.01h1.8v8.33Zm8.06-4.23c-.17.4-.4.81-.67,1.23l-2.01,3h-2.39l2.07-2.87.02-.04c-.09.03-.18.05-.29.07-.11.02-.21.03-.3.03-.37,0-.72-.07-1.05-.2-.33-.13-.62-.31-.87-.55-.25-.24-.45-.53-.6-.86-.15-.33-.22-.7-.22-1.11,0-.47.09-.89.26-1.27.17-.38.41-.69.7-.95.3-.26.65-.46,1.05-.59.4-.14.82-.21,1.27-.21s.88.07,1.28.21c.4.14.75.34,1.04.59.29.26.53.57.7.94.17.37.26.78.26,1.24,0,.5-.09.94-.26,1.35m7.71,2.7c-.17.38-.41.69-.71.95-.3.26-.65.46-1.05.59-.4.14-.82.21-1.27.21s-.88-.07-1.28-.21c-.4-.14-.74-.33-1.04-.59-.3-.26-.53-.57-.71-.94-.17-.37-.26-.78-.26-1.24,0-.5.09-.95.26-1.35.17-.41.4-.82.67-1.23l2.01-3h2.39l-2.05,2.85-.04.06c.08-.03.17-.05.28-.07.11-.02.21-.02.31-.02.36,0,.71.06,1.04.19.33.13.62.31.87.55.25.24.44.53.59.86.15.33.22.7.22,1.11,0,.47-.09.9-.26,1.27m7.73.1c-.18.37-.42.68-.72.93-.3.24-.65.42-1.03.55-.38.12-.78.18-1.19.18-.38,0-.74-.05-1.08-.15-.34-.1-.65-.24-.93-.42-.28-.18-.52-.4-.72-.67-.2-.26-.35-.56-.44-.89l1.8-.55c.08.29.25.53.49.72.24.19.52.28.85.28s.63-.1.88-.31c.25-.2.37-.51.37-.91,0-.24-.05-.45-.15-.61-.1-.16-.23-.3-.39-.39-.16-.1-.35-.17-.55-.21-.2-.04-.41-.06-.61-.06-.3,0-.64.03-1.02.1-.38.07-.72.16-1.02.27l.2-4.77h5.11v1.7h-3.35l-.07,1.32c.13-.03.26-.05.42-.07.15-.01.29-.02.42-.02.42,0,.81.06,1.18.17.37.11.69.28.96.5.27.23.48.5.64.83.16.33.24.71.24,1.15,0,.51-.09.95-.27,1.32m-10.74-2.63c-.39,0-.71.12-.96.37-.24.24-.37.56-.37.95,0,.36.12.67.35.93.24.26.56.39.96.39s.71-.12.95-.37c.24-.24.36-.56.36-.96,0-.38-.12-.69-.35-.94-.24-.25-.55-.37-.95-.37"/>
</g>
</svg>